<?xml version="1.0" encoding="UTF-8"?><svg id="Capa_2" xmlns="http://www.w3.org/2000/svg" viewBox="0 0 79.87 79.83"><defs><style>.cls-1{fill:#8fdca5;stroke-width:0px;}</style></defs><g id="Capa_1-2"><path class="cls-1" d="m66.95,48.21c-3.06,0-4.7-1.57-5.89-2.72-1.04-1-1.67-1.6-3.12-1.6s-2.08.6-3.12,1.6c-1.2,1.15-2.83,2.72-5.89,2.72s-4.69-1.57-5.89-2.72c-1.04-1-1.67-1.6-3.12-1.6s-2.08.6-3.12,1.6c-1.19,1.15-2.83,2.72-5.89,2.72s-4.69-1.57-5.89-2.72c-1.04-1-1.67-1.6-3.12-1.6s-2.07.6-3.12,1.6c-1.2,1.15-2.83,2.72-5.89,2.72s-4.69-1.57-5.89-2.72c-1.04-1-1.67-1.6-3.12-1.6v-4c3.05,0,4.69,1.57,5.89,2.72,1.04,1,1.67,1.6,3.12,1.6s2.07-.6,3.12-1.6c1.2-1.15,2.83-2.72,5.89-2.72s4.69,1.57,5.89,2.72c1.04,1,1.67,1.6,3.12,1.6s2.08-.6,3.12-1.6c1.19-1.15,2.83-2.72,5.89-2.72s4.69,1.57,5.89,2.72c1.04,1,1.67,1.6,3.12,1.6s2.08-.6,3.12-1.6c1.2-1.15,2.83-2.72,5.89-2.72s4.69,1.57,5.89,2.72c1.04,1,1.67,1.6,3.12,1.6s2.08-.6,3.12-1.6c1.2-1.15,2.83-2.72,5.89-2.72v4c-1.45,0-2.08.6-3.12,1.6-1.2,1.15-2.83,2.72-5.89,2.72Z"/><path class="cls-1" d="m39.57,32.8c-3.78,0-6.85-3.07-6.85-6.85v-14.54c0-3.78,3.07-6.85,6.85-6.85s6.85,3.07,6.85,6.85v14.54c0,3.78-3.07,6.85-6.85,6.85Zm0-24.25c-1.57,0-2.85,1.28-2.85,2.85v14.54c0,1.57,1.28,2.85,2.85,2.85s2.85-1.28,2.85-2.85v-14.54c0-1.57-1.28-2.85-2.85-2.85Z"/><path class="cls-1" d="m38.18,74.66c2.3-12.88,3.46-29.52,3.46-42.89h-4c0,14.78-1.46,32.82-4.3,46.95h0c2.39,0,4.42-1.72,4.84-4.07Z"/><path class="cls-1" d="m39.93,79.83C17.91,79.83,0,61.92,0,39.9h4c0,19.81,16.12,35.93,35.93,35.93s35.93-16.12,35.93-35.93h4c0,22.02-17.91,39.93-39.93,39.93Z"/><path class="cls-1" d="m41.57,0h0v7.88h-4v-3.88C37.57,1.79,39.36,0,41.57,0Z"/></g></svg>