<?xml version="1.0" encoding="UTF-8"?><svg id="Capa_2" xmlns="http://www.w3.org/2000/svg" viewBox="0 0 79.78 80.57"><defs><style>.cls-1{fill:#8fdca5;stroke-width:0px;}</style></defs><g id="Capa_1-2"><path class="cls-1" d="m39.74,3.85c5.16,0,9.96,2.55,12.86,6.83l.85,1.25,1.48.34c7.08,1.63,12.02,7.84,12.02,15.1,0,2.06-.4,4.06-1.19,5.95l-.62,1.48.62,1.48c.79,1.89,1.19,3.9,1.19,5.95,0,8.56-6.96,15.52-15.52,15.52-3.34,0-6.53-1.06-9.23-3.07l-2.3-1.71-2.3,1.71c-2.7,2.01-5.9,3.07-9.23,3.07-8.56,0-15.52-6.96-15.52-15.52,0-2.09.41-4.11,1.21-6.02l.63-1.5-.63-1.5c-.8-1.91-1.21-3.93-1.21-6.02,0-7.17,4.87-13.36,11.84-15.06l1.43-.35.83-1.21c2.9-4.22,7.69-6.75,12.79-6.75m0-3.85c-6.63,0-12.48,3.34-15.97,8.42-8.48,2.06-14.78,9.69-14.78,18.8,0,2.67.54,5.21,1.51,7.52-.97,2.31-1.51,4.85-1.51,7.52,0,10.7,8.67,19.37,19.37,19.37,4.33,0,8.31-1.44,11.53-3.83,3.22,2.4,7.21,3.83,11.53,3.83,10.7,0,19.37-8.67,19.37-19.37,0-2.64-.53-5.14-1.48-7.43.95-2.29,1.48-4.8,1.48-7.43,0-9.19-6.41-16.88-15.01-18.86C52.3,3.38,46.42,0,39.74,0h0Z"/><path class="cls-1" d="m27.51,23.61h0c-1.5,1.5-1.5,3.94,0,5.45l10.89,10.89,2.72-2.72-13.62-13.62h0Z"/><path class="cls-1" d="m51.43,32.78l-13.62,13.62,2.72,2.72,10.89-10.89c1.5-1.5,1.5-3.94,0-5.45h0Z"/><path class="cls-1" d="m37.81,18.74v58.39h3.85V22.6c0-2.13-1.72-3.85-3.85-3.85h0Z"/><path class="cls-1" d="m3.99,76.59h71.8c2.2,0,3.99,1.79,3.99,3.99H0C0,78.37,1.79,76.59,3.99,76.59Z"/></g></svg>