<?xml version="1.0" encoding="UTF-8"?><svg id="Capa_2" xmlns="http://www.w3.org/2000/svg" viewBox="0 0 80.94 80.32"><defs><style>.cls-1{fill:#8fdca5;stroke-width:0px;}</style></defs><g id="Capa_1-2"><path class="cls-1" d="m55.85,80.32h-30.76c-13.83,0-25.09-11.25-25.09-25.09,0-6.96,2.88-13.56,7.94-18.3-.34-1.53-.51-3.07-.51-4.6,0-10.01,7.16-18.76,16.86-20.84C26.67,4.66,33.16,0,40.47,0s13.79,4.66,16.18,11.49c9.7,2.08,16.86,10.83,16.86,20.84,0,1.53-.17,3.07-.51,4.6,5.06,4.74,7.94,11.34,7.94,18.3,0,13.83-11.26,25.09-25.09,25.09ZM40.47,4c-5.94,0-11.16,4.01-12.7,9.75l-.34,1.26-1.29.2c-8.39,1.28-14.71,8.63-14.71,17.12,0,1.57.23,3.16.67,4.74l.35,1.24-.98.83c-4.75,4.02-7.47,9.89-7.47,16.09,0,11.63,9.46,21.09,21.09,21.09h30.76c11.63,0,21.09-9.46,21.09-21.09,0-6.21-2.72-12.07-7.47-16.09l-.98-.83.35-1.24c.45-1.58.67-3.17.67-4.74,0-8.48-6.33-15.84-14.71-17.12l-1.29-.2-.34-1.26c-1.54-5.74-6.76-9.75-12.7-9.75Z"/></g></svg>