<?xml version="1.0" encoding="utf-8"?>
<!-- Generator: Adobe Illustrator 27.9.3, SVG Export Plug-In . SVG Version: 9.03 Build 53313)  -->
<svg version="1.1" id="Capa_2_00000179605883693950762770000002078741839707022737_"
	 xmlns="http://www.w3.org/2000/svg" xmlns:xlink="http://www.w3.org/1999/xlink" x="0px" y="0px" viewBox="0 0 79.2 79.9"
	 style="enable-background:new 0 0 79.2 79.9;" xml:space="preserve" fill="#90DDA6">
<style type="text/css">
</style>
<path class="st0" d="M77.3,33.4h-1.6c-0.3-2.9-1.4-5.8-3.4-8.2l0.1,0.1l1.4-1.4c0.8-0.8,0.8-2,0-2.7s-2-0.8-2.7,0l-1.4,1.4l0.1,0.1
	c-2.9-2.3-6.4-3.5-9.9-3.5c-0.3,0-0.6,0-0.9,0c0.3,1.3,0.4,2.6,0.4,4c0.2,0,0.3,0,0.5,0c3.2,0,6.2,1.2,8.4,3.5
	c4.6,4.6,4.6,12.2,0,16.8l-8.8,8.8v-29c0,0,0-0.1,0-0.1c0,0,0,0,0,0c0-1.4-0.2-2.7-0.4-4c-0.7,0-1.3,0.1-2,0.2c0,0,0,0,0,0
	c0.7-0.1,1.3-0.2,2-0.2c-0.7-3.5-2.4-6.6-4.7-9.2l0.8,0.8l1.4-1.4c0.8-0.8,0.8-2,0-2.7s-2-0.8-2.7,0l-1.4,1.4L53,8.7
	c-3-2.8-6.9-4.6-11.2-5.1V1.9c0-1.1-0.9-1.9-2-1.9c-1.1,0-1.9,0.9-1.9,1.9v1.7C33.5,4,29.6,5.8,26.6,8.5L27.1,8l-1.4-1.4
	c-0.8-0.8-2-0.8-2.7,0s-0.8,2,0,2.7l1.4,1.4l0.6-0.6c-3.1,3.5-5,8.1-5,13.1v0.1c-0.2,0-0.4,0-0.6,0c-3.3,0-6.7,1.1-9.5,3.2l-1.2-1.2
	c-0.8-0.8-2-0.8-2.7,0s-0.8,2,0,2.7L7,29.1c-2,2.4-3.2,5.4-3.5,8.3H1.9c-1.1,0-1.9,0.9-1.9,1.9c0,1.1,0.9,1.9,1.9,1.9h1.7
	c0.4,2.8,1.5,5.4,3.3,7.7l-1.3,1.3c-0.8,0.8-0.8,2,0,2.7s2,0.8,2.7,0l1.3-1.3l10.3,10.3c0,0,0.1,0.1,0.1,0.1
	c-0.1-0.7-0.1-1.5-0.1-2.2v-0.7h0v0l0,0v0.7c0,0.7,0.1,1.5,0.1,2.2c0.7,0.7,1.5,1.4,2.4,1.9c0,0,0,0,0,0c0,0,0,0,0,0
	c1.9,7.8,8.9,13.6,17.3,13.6c9.8,0,17.8-8,17.8-17.8v0c0,9.8-8,17.8-17.8,17.8c-8.4,0-15.4-5.8-17.3-13.7c-0.8-0.5-1.6-1.2-2.4-1.9
	c1.1,9.9,9.5,17.6,19.6,17.6c10.9,0,19.8-8.9,19.8-19.8v-2.2v0l10.8-10.8l1.2,1.2c0.8,0.8,2,0.8,2.7,0c0.8-0.8,0.8-2,0-2.7l-1.4-1.4
	l-0.1,0.1c1.5-2.1,2.5-4.6,2.9-7.1h1.7c1.1,0,1.9-0.9,1.9-1.9S78.3,33.4,77.3,33.4z M57.4,54.2V23.4c0,0,0,0,0,0L57.4,54.2
	L57.4,54.2z M21.9,23.3c0-9.8,8-17.8,17.8-17.8c0,0,0,0,0,0C29.9,5.5,21.9,13.5,21.9,23.3l0,0.3c0.2,0,0.3,0.1,0.5,0.1
	c-0.2,0-0.3-0.1-0.5-0.1c0,0,0,0,0,0C21.9,23.5,21.9,23.3,21.9,23.3z M23.9,28.2c1.4,0.6,2.7,1.5,3.8,2.6c0,0,7.2,7.2,7.2,7.2
	c0,0,0,0,0,0l2.9,2.9c0.3-0.6,0.7-1.2,1.2-1.7l0,0c-0.4,0.5-0.8,1.1-1.2,1.7l1.7,1.7l0,0c3.8,3.8,4.5,9.6,2,14.1
	c0.6,0.4,1.1,0.7,1.8,1l0,0c0,0,0,0,0,0c0,0,0,0,0,0c0.6,0.3,1.3,0.5,1.9,0.7c3.1-6,2.2-13.5-2.9-18.5l-2-2l0,0L37.5,35l-7-7
	c-1.9-1.9-4.2-3.2-6.6-4c-0.2-0.1-0.5-0.1-0.7-0.2c0.2,0.1,0.5,0.1,0.7,0.2v-0.7h0c0-8.7,7.1-15.8,15.8-15.8
	c7.5,0,13.9,5.3,15.4,12.4c0,0,0,0,0,0c0.2,1.1,0.4,2.2,0.4,3.4v0V24v32.1v4c0,0.3,0,0.5,0,0.7c0,0,0,0,0,0c-0.4,8.3-7.3,15-15.7,15
	c-6.8,0-12.6-4.3-14.8-10.3c0,0,0,0,0,0c-0.3-0.8-0.5-1.7-0.7-2.6c-0.8-0.4-1.5-1-2.2-1.6c0,0,0,0,0,0c0,0,0,0,0,0
	c0-0.4-0.1-0.8-0.1-1.3v-1.6l-2-2v0l-9-9c-4.6-4.6-4.6-12.2,0-16.8c2.2-2.2,5.2-3.5,8.4-3.5c0.2,0,0.4,0,0.6,0c0.7,0,1.3,0.1,2,0.3
	C22.6,27.8,23.3,28,23.9,28.2l0-2.1v0 M57.4,59.6c0.7-0.5,1.3-1,1.9-1.6C58.7,58.6,58.1,59.1,57.4,59.6z"/>
<path class="st0" d="M31.1,62.9c-2.6,0-5.1-0.9-7.2-2.4c0,0,0,0,0,0c-0.4-0.3-0.8-0.7-1.2-1l-0.8-0.8v1.6c0,0.4,0,0.8,0.1,1.3
	c0.7,0.6,1.4,1.1,2.2,1.6c0,0,0,0,0,0c2.1,1.2,4.5,1.9,6.9,1.9c3.6,0,7.1-1.4,9.7-3.9c-0.6-0.3-1.2-0.7-1.8-1.1
	C36.8,61.8,34,62.9,31.1,62.9z"/>
<path class="st0" d="M39,59.8c0.6,0.4,1.2,0.8,1.8,1.1c0,0,0,0,0,0c0,0,0,0,0,0v0c0,0,0,0,0,0c0,0,0,0,0,0c0,0,0,0,0,0
	c-2.6,2.5-6,3.9-9.7,3.9c-2.5,0-4.8-0.7-6.9-1.9c0.2,0.9,0.4,1.8,0.7,2.6c2,0.8,4.1,1.3,6.2,1.3c4.1,0,8.1-1.6,11.2-4.7h0
	c0.1-0.2,0.3-0.3,0.4-0.5c0,0,0,0,0,0c1-1.1,1.8-2.2,2.4-3.4c-0.7-0.2-1.3-0.4-1.9-0.7c0,0,0,0,0,0c-0.6-0.3-1.2-0.6-1.8-1
	c-0.5,1-1.2,1.9-2,2.7C39.3,59.6,39.2,59.7,39,59.8z M40.9,60.8C40.9,60.8,40.9,60.8,40.9,60.8C40.9,60.8,40.9,60.8,40.9,60.8
	L40.9,60.8z"/>
</svg>
