<?xml version="1.0" encoding="UTF-8"?><svg id="Capa_2" xmlns="http://www.w3.org/2000/svg" viewBox="0 0 79.22 79.91"><defs><style>.cls-1,.cls-2{stroke-width:0px;}.cls-2{fill:none;}</style></defs><g id="Capa_1-2"><path class="cls-1" d="m39.79,0h0C40.87,0,41.74.87,41.74,1.94v1.94h-3.88v-1.94C37.85.87,38.72,0,39.79,0Z"/><path class="cls-1" d="m55.15,6.18h0c1.07,0,1.94.87,1.94,1.94v1.94h-3.88v-1.94c0-1.07.87-1.94,1.94-1.94Z" transform="translate(21.89 -36.62) rotate(45)"/><path class="cls-1" d="m24.32,6.07h0c1.07,0,1.94.87,1.94,1.94v1.94h-3.88v-1.94c0-1.07.87-1.94,1.94-1.94Z" transform="translate(1.46 19.55) rotate(-45)"/><path class="cls-1" d="m1.94,37.48h0c1.07,0,1.94.87,1.94,1.94v1.94H0v-1.94C0,38.35.87,37.48,1.94,37.48Z" transform="translate(-37.48 41.36) rotate(-90)"/><path class="cls-1" d="m6.95,49.86h0c1.07,0,1.94.87,1.94,1.94v1.94h-3.88v-1.94c0-1.07.87-1.94,1.94-1.94Z" transform="translate(-24.77 93.35) rotate(-135)"/><path class="cls-1" d="m7.23,24.68h0c1.07,0,1.94.87,1.94,1.94v1.94h-3.88v-1.94c0-1.07.87-1.94,1.94-1.94Z" transform="translate(-16.7 12.91) rotate(-45)"/><path class="cls-1" d="m75.34,33.36h3.88v1.94c0,1.07-.87,1.94-1.94,1.94h0c-1.07,0-1.94-.87-1.94-1.94v-1.94h0Z" transform="translate(41.98 112.58) rotate(-90)"/><path class="cls-1" d="m70.92,44.98h3.88v1.94c0,1.07-.87,1.94-1.94,1.94h0c-1.07,0-1.94-.87-1.94-1.94v-1.94h0Z" transform="translate(-11.84 65.26) rotate(-45)"/><path class="cls-1" d="m70.45,20.56h3.88v1.94c0,1.07-.87,1.94-1.94,1.94h0c-1.07,0-1.94-.87-1.94-1.94v-1.94h0Z" transform="translate(107.67 89.6) rotate(-135)"/><path class="cls-2" d="m59.44,52.25l8.84-8.84c4.63-4.63,4.63-12.16,0-16.78-2.24-2.24-5.22-3.48-8.39-3.48-.15,0-.3.02-.45.02,0,.04,0,.07,0,.11v28.97Z"/><path class="cls-1" d="m71.1,23.8c-3.1-3.1-7.16-4.65-11.22-4.65-.29,0-.58.03-.87.04.27,1.29.42,2.62.42,3.98.15,0,.3-.02.45-.02,3.17,0,6.15,1.23,8.39,3.48,4.63,4.63,4.63,12.16,0,16.78l-8.84,8.84v5.66l11.67-11.67c6.2-6.2,6.2-16.24,0-22.44Z"/><path class="cls-1" d="m21.9,23.29c0-9.8,7.97-17.77,17.77-17.77,8.47,0,15.56,5.96,17.33,13.91.66-.12,1.33-.19,2.01-.23-1.88-8.95-9.82-15.68-19.34-15.68h0c-10.92,0-19.77,8.85-19.77,19.77v.07c.67.03,1.34.09,2,.2v-.27Z"/><path class="cls-1" d="m57.44,59.62v.53c0,9.8-7.97,17.77-17.77,17.77-8.38,0-15.4-5.83-17.27-13.65-.84-.55-1.63-1.19-2.37-1.92,1.1,9.88,9.46,17.57,19.64,17.57h0c10.92,0,19.77-8.85,19.77-19.77v-2.24l-.14.14c-.59.59-1.21,1.1-1.86,1.57Z"/><path class="cls-1" d="m57.44,54.25l2-2v-28.97s0-.07,0-.11c-.68.03-1.34.1-1.99.23v30.84Z"/><path class="cls-1" d="m57.44,54.25v5.37c.65-.47,1.28-.99,1.86-1.57l.14-.14v-5.66l-2,2Z"/><path class="cls-1" d="m57.44,23.29v.13c.65-.14,1.32-.21,1.99-.23,0-1.36-.15-2.69-.42-3.98-.67.04-1.34.11-2.01.23.28,1.24.43,2.53.43,3.86Z"/><path class="cls-1" d="m55.44,24.02v32.11c.36-.28.71-.58,1.03-.91l.97-.97v-30.84c-.69.14-1.35.35-2,.61Z"/><path class="cls-1" d="m23.9,23.29c0-8.69,7.07-15.77,15.77-15.77,7.54,0,13.85,5.32,15.4,12.4.64-.2,1.28-.37,1.94-.49-1.77-7.94-8.86-13.91-17.33-13.91-9.8,0-17.77,7.97-17.77,17.77v.27c.67.11,1.34.26,2,.45v-.72Z"/><path class="cls-1" d="m39.67,75.91c-6.78,0-12.56-4.31-14.78-10.33-.86-.36-1.69-.8-2.49-1.32,1.86,7.81,8.89,13.65,17.27,13.65,9.8,0,17.77-7.97,17.77-17.77v-.53c-.66.48-1.33.92-2.04,1.29-.4,8.34-7.29,15.01-15.73,15.01Z"/><path class="cls-1" d="m55.44,56.13v4.02c0,.26-.03.51-.04.76.71-.37,1.38-.81,2.04-1.29v-5.37l-.97.97c-.33.33-.68.63-1.03.91Z"/><path class="cls-1" d="m55.44,23.29v.73c.65-.26,1.31-.46,2-.61v-.13c0-1.33-.16-2.62-.43-3.86-.65.12-1.3.29-1.94.49.24,1.09.37,2.21.37,3.37Z"/><path class="cls-1" d="m19.9,59.4l-10.41-10.41c-5.41-5.41-5.41-14.2,0-19.61,2.62-2.62,6.1-4.06,9.81-4.06.2,0,.4.02.6.03v-2c-.2,0-.4-.03-.6-.03-4.06,0-8.12,1.55-11.22,4.65h0c-6.2,6.2-6.2,16.24,0,22.44l11.8,11.8s.1.08.14.13c-.08-.72-.13-1.46-.13-2.2v-.74Z"/><path class="cls-1" d="m42.33,62.22h0c.15-.15.28-.31.42-.46-.67-.24-1.32-.51-1.96-.84-2.6,2.54-6.03,3.95-9.68,3.95-2.48,0-4.85-.66-6.93-1.87.16.89.41,1.76.72,2.59,1.98.84,4.1,1.28,6.22,1.28,4.06,0,8.12-1.55,11.22-4.65Z"/><path class="cls-1" d="m38.96,39.24l1.95,1.95c4.45,4.46,5.23,11.21,2.34,16.47.62.28,1.26.5,1.93.66,3.12-5.98,2.17-13.53-2.86-18.55l-1.99-1.99-.65.65c-.26.26-.5.53-.73.8Z"/><path class="cls-1" d="m36.13,36.41c.24-.27.47-.54.73-.8l.65-.65-6.99-6.99c-1.91-1.91-4.2-3.23-6.62-3.96v2.11c1.93.68,3.71,1.77,5.21,3.27l7.02,7.02Z"/><path class="cls-1" d="m40.91,60.8s-.09.08-.13.12c.64.33,1.29.6,1.96.84.98-1.06,1.8-2.21,2.44-3.43-.66-.17-1.31-.38-1.93-.66-.62,1.12-1.39,2.19-2.34,3.14Z"/><path class="cls-1" d="m36.13,36.41l2.83,2.83c.23-.28.47-.54.73-.8l.65-.65-2.83-2.83-.65.65c-.26.26-.49.53-.73.8Z"/><path class="cls-1" d="m21.97,61.41c-.22-.2-.45-.39-.66-.6l-1.4-1.4v.74c0,.74.05,1.48.13,2.2.74.72,1.54,1.37,2.37,1.92-.22-.93-.37-1.88-.44-2.86Z"/><path class="cls-1" d="m21.9,25.57v-2.02c-.66-.11-1.33-.17-2-.2v2c.68.03,1.35.09,2,.22Z"/><path class="cls-1" d="m23.9,24.01c-.66-.2-1.33-.34-2-.45v2.02c.68.13,1.35.32,2,.55v-2.11Z"/><path class="cls-1" d="m24.17,63c-.78-.45-1.52-.98-2.21-1.59.07.98.22,1.93.44,2.86.79.52,1.63.96,2.49,1.32-.31-.83-.55-1.7-.72-2.59Z"/><path class="cls-1" d="m10.91,47.58c-4.63-4.63-4.63-12.16,0-16.78,2.24-2.24,5.22-3.48,8.39-3.48.2,0,.4.02.6.03v-2c-.2,0-.4-.03-.6-.03-3.7,0-7.19,1.44-9.81,4.06-5.41,5.41-5.41,14.21,0,19.61l10.41,10.41v-2.83l-8.99-8.99Z"/><path class="cls-1" d="m34.9,38c.37-.55.79-1.08,1.24-1.59l-7.02-7.02c-1.49-1.49-3.27-2.59-5.21-3.27v2.13c1.4.59,2.69,1.45,3.79,2.55l7.2,7.2Z"/><path class="cls-1" d="m39.5,42.61c3.81,3.81,4.48,9.6,2,14.1.56.37,1.15.69,1.76.96,2.89-5.27,2.11-12.02-2.34-16.47l-1.95-1.95c-.44.53-.82,1.09-1.16,1.67l1.7,1.7Z"/><path class="cls-1" d="m40.78,60.92c-.61-.32-1.2-.69-1.78-1.09-2.18,1.95-4.95,3.03-7.9,3.03-2.64,0-5.13-.86-7.19-2.44.02.88.1,1.74.26,2.57,2.09,1.21,4.46,1.87,6.93,1.87,3.65,0,7.07-1.4,9.68-3.95Z"/><path class="cls-1" d="m38.96,39.24l-2.83-2.83c-.45.51-.87,1.04-1.24,1.59l2.91,2.91c.34-.58.72-1.15,1.16-1.67Z"/><path class="cls-1" d="m43.26,57.67c-.61-.27-1.2-.58-1.76-.96-.53.96-1.19,1.87-2,2.68-.16.16-.33.3-.49.44.57.4,1.16.77,1.78,1.09.04-.04.09-.08.13-.12.95-.95,1.73-2.01,2.34-3.14Z"/><path class="cls-1" d="m21.9,58.58l-2-2v2.83l1.4,1.4c.21.21.44.41.66.6-.03-.42-.06-.83-.06-1.26v-1.57Z"/><path class="cls-1" d="m21.9,27.62v-2.05c-.65-.12-1.32-.19-2-.22v2c.68.03,1.35.12,2,.27Z"/><path class="cls-1" d="m23.9,28.25v-2.13c-.65-.23-1.32-.42-2-.55v2.05c.69.15,1.36.36,2,.63Z"/><path class="cls-1" d="m23.92,60.42c-.42-.32-.82-.66-1.2-1.04l-.81-.81v1.57c0,.42.03.84.06,1.26.69.61,1.43,1.14,2.21,1.59-.15-.84-.24-1.7-.26-2.57Z"/></g></svg>