<?xml version="1.0" encoding="UTF-8"?><svg id="Capa_2" xmlns="http://www.w3.org/2000/svg" viewBox="0 0 80.13 79.95"><defs><style>.cls-1{fill:#8fdca5;stroke-width:0px;}</style></defs><g id="Capa_1-2"><path class="cls-1" d="m42.26,61.65c1.82-16.99,16.23-30.27,33.7-30.27h0c0-2.24-1.94-4.02-4.17-3.77-12.94,1.43-23.93,9.4-29.6,20.52,1.3-15.21,14.09-27.19,29.63-27.19h0c0-2.25-1.97-4.02-4.2-3.74-11.04,1.38-20.44,8.1-25.52,17.5.72-13.4,11.84-24.08,25.41-24.08h0c0-2.29-2.05-4.02-4.31-3.68-9.02,1.33-16.72,6.77-21.14,14.35L42.11,0h0c-2.21,0-4,1.78-4.01,3.99l-.04,17.28c-4.42-7.57-12.12-13.01-21.14-14.34-2.27-.33-4.31,1.39-4.31,3.68h0c13.57,0,24.7,10.68,25.42,24.08-5.08-9.39-14.48-16.12-25.52-17.5-2.23-.28-4.2,1.49-4.2,3.74h0c15.54,0,28.33,11.98,29.63,27.19-5.67-11.12-16.66-19.1-29.6-20.52-2.23-.25-4.17,1.53-4.17,3.77h0c17.46,0,31.88,13.28,33.7,30.27-6.24-12.85-18.83-22.07-33.67-23.55-2.25-.22-4.2,1.53-4.2,3.79h0c21.02,0,38.06,17.04,38.06,38.06h4c0-21.02,17.04-38.06,38.06-38.06h0c0-2.26-1.96-4.02-4.2-3.79-14.84,1.48-27.43,10.7-33.67,23.55Z"/></g></svg>