<?xml version="1.0" encoding="UTF-8"?><svg id="Capa_2" xmlns="http://www.w3.org/2000/svg" viewBox="0 0 72.08 80"><defs><style>.cls-1{fill:#8fdca5;stroke-width:0px;}</style></defs><g id="Capa_1-2"><path class="cls-1" d="m36.04,4c5.79,0,10.53,4.71,10.57,10.5l.05,6.64,5.85-3.14c1.55-.83,3.23-1.25,5-1.25,5.83,0,10.58,4.74,10.58,10.58,0,3.8-2.06,7.32-5.38,9.2l-6.15,3.48,6.15,3.48c3.32,1.88,5.38,5.41,5.38,9.2,0,5.83-4.74,10.58-10.58,10.58-1.77,0-3.45-.42-5-1.26l-5.85-3.14-.05,6.64c-.04,5.79-4.78,10.5-10.57,10.5s-10.53-4.71-10.57-10.5l-.05-6.64-5.85,3.14c-1.55.83-3.23,1.26-5,1.26-5.83,0-10.58-4.74-10.58-10.58,0-3.8,2.06-7.32,5.38-9.2l6.15-3.48-6.15-3.48c-3.32-1.88-5.38-5.41-5.38-9.2,0-5.83,4.74-10.58,10.58-10.58,1.77,0,3.45.42,5,1.26l5.85,3.14.05-6.64c.04-5.79,4.78-10.5,10.57-10.5m0-4c-8.01,0-14.51,6.47-14.57,14.47-2.05-1.1-4.4-1.73-6.89-1.73C6.53,12.74,0,19.27,0,27.32c0,5.44,2.99,10.18,7.41,12.68-4.42,2.5-7.41,7.24-7.41,12.68,0,8.05,6.53,14.58,14.58,14.58,2.49,0,4.84-.63,6.89-1.73.06,8,6.56,14.47,14.57,14.47s14.51-6.47,14.57-14.47c2.05,1.1,4.4,1.73,6.89,1.73,8.05,0,14.58-6.53,14.58-14.58,0-5.44-2.99-10.18-7.41-12.68,4.42-2.5,7.41-7.24,7.41-12.68,0-8.05-6.53-14.58-14.58-14.58-2.49,0-4.84.63-6.89,1.73-.06-8-6.56-14.47-14.57-14.47h0Z"/><path class="cls-1" d="m36.04,32.29c4.25,0,7.71,3.46,7.71,7.71s-3.46,7.71-7.71,7.71-7.71-3.46-7.71-7.71,3.46-7.71,7.71-7.71m0-4c-6.47,0-11.71,5.24-11.71,11.71s5.24,11.71,11.71,11.71,11.71-5.24,11.71-11.71-5.24-11.71-11.71-11.71h0Z"/></g></svg>