<?xml version="1.0" encoding="UTF-8"?><svg id="Capa_2" xmlns="http://www.w3.org/2000/svg" viewBox="0 0 179.11 42.13"><defs><style>.cls-1{fill:#eee;stroke-width:0px;}</style></defs><g id="Capa_1-2"><path class="cls-1" d="m7,41.38H0V10.04h6.45l.12,5.54.43.91v24.89Zm18.5,0h-7v-21.72c0-.97-.14-1.78-.43-2.43-.28-.65-.71-1.13-1.28-1.43-.57-.3-1.26-.46-2.07-.46-1.58,0-3.12.33-4.62,1s-3.02,1.45-4.56,2.34l-.61-4.44c2.19-1.66,4.29-2.9,6.3-3.71,2.01-.81,3.94-1.22,5.81-1.22,1.54,0,2.94.31,4.2.94,1.26.63,2.28,1.61,3.07,2.95s1.19,3.1,1.19,5.29v22.88h0Z"/><path class="cls-1" d="m39.43,42.11c-3.04,0-5.3-.81-6.78-2.43-1.48-1.62-2.22-3.91-2.22-6.88,0-3.16.79-5.56,2.37-7.18s3.96-2.54,7.12-2.74c1.34-.12,2.76-.2,4.26-.24s2.94-.08,4.32-.12v4.75l-6.75.24c-1.54.04-2.67.46-3.38,1.25s-1.06,2-1.06,3.62.32,2.71.97,3.38c.65.67,1.62,1,2.92,1s2.71-.3,4.11-.91,2.46-1.32,3.19-2.13l.55,4.32c-1.06,1.18-2.46,2.15-4.23,2.92-1.76.77-3.56,1.16-5.39,1.16h0Zm15.09-.73h-6.08l-.12-4.93-.73.61v-17.77c0-1.62-.4-2.77-1.19-3.44s-2.14-1-4.05-1c-1.06,0-2.16.08-3.32.24-1.16.16-2.23.36-3.23.58-.99.22-1.84.42-2.52.58l-1.03-5.35c1.58-.45,3.33-.82,5.23-1.13,1.91-.3,3.87-.46,5.9-.46,3.57,0,6.32.69,8.24,2.07,1.93,1.38,2.89,3.83,2.89,7.36v22.63h.01Z"/><path class="cls-1" d="m63.1,34.08V15.52h-4.87v-5.23l5.17-.24.24-7.24,6.39-.67v30.97c0,1.3.18,2.2.55,2.71.37.51,1.03.76,2.01.76.77,0,1.55-.06,2.34-.18s1.61-.32,2.46-.61l1.22,4.81c-.93.45-2.11.81-3.53,1.1-1.42.28-2.96.43-4.62.43-2.72,0-4.62-.65-5.72-1.95s-1.64-3.33-1.64-6.08v-.02Zm3.89-24.03h10.71v5.42h-10.71v-5.42Z"/><path class="cls-1" d="m84.58,10.05h7v31.34h-7s0-31.34,0-31.34ZM79.96.01h3.86c2.37,0,4.29,1.92,4.29,4.29v1.06h-3.61c-2.51,0-4.55-2.04-4.55-4.55v-.81h.01ZM92.41.01h3.86v.81c0,2.51-2.04,4.55-4.55,4.55h-3.61v-1.06c0-2.37,1.92-4.29,4.29-4.29h.01Z"/><path class="cls-1" d="m108.31,39.19l6.33-21.17c.28-.93.5-1.87.64-2.8.14-.93.21-1.85.21-2.74v-2.43h6.63v2.37c0,1.42-.08,2.63-.24,3.62-.16.99-.43,2-.79,3.01l-7.85,22.33h-8.21l-7.85-22.33c-.37-1.01-.63-2.02-.79-3.01-.16-.99-.24-2.2-.24-3.62v-2.37h7.06v2.43c0,.89.08,1.81.24,2.74s.38,1.87.67,2.8l6.33,21.17h-2.14Z"/><path class="cls-1" d="m126.5,32.8V10.04h7v21.66c0,1.42.3,2.51.91,3.26s1.6,1.12,2.98,1.12c1.58,0,3.11-.32,4.59-.97s2.93-1.4,4.35-2.25l.37,4.69c-2.07,1.46-4.04,2.59-5.9,3.38-1.87.79-3.77,1.19-5.72,1.19-1.62,0-3.07-.33-4.35-1s-2.3-1.69-3.07-3.07-1.16-3.12-1.16-5.23v-.02Zm18.38,3.04l-.43-.91V10.04h7v31.34h-6.45l-.12-5.54h0Z"/><path class="cls-1" d="m156.68,40.9l1.03-5.66c1.7.37,3.29.66,4.78.88,1.48.22,2.89.33,4.23.33,2.15,0,3.66-.34,4.53-1.03s1.31-1.76,1.31-3.22c0-1.22-.36-2.03-1.06-2.43-.71-.4-1.88-.79-3.5-1.16l-2.8-.61c-1.83-.41-3.33-.93-4.5-1.58-1.18-.65-2.05-1.55-2.62-2.71-.57-1.16-.85-2.69-.85-4.59,0-3.37,1.01-5.84,3.04-7.42s4.79-2.37,8.27-2.37c1.46,0,2.74.04,3.83.12s2.1.18,3.01.3c.91.12,1.79.26,2.65.43l-1.46,5.48c-.85-.12-1.7-.24-2.56-.37s-1.71-.22-2.59-.3c-.87-.08-1.82-.12-2.83-.12-1.54,0-2.72.28-3.53.85s-1.22,1.44-1.22,2.62c0,.81.11,1.4.33,1.76.22.37.62.65,1.19.85.57.2,1.36.43,2.37.67l2.56.49c2.15.49,3.86,1.09,5.14,1.79,1.28.71,2.21,1.65,2.8,2.83.59,1.18.88,2.76.88,4.75,0,2.31-.44,4.26-1.31,5.84-.87,1.58-2.21,2.78-4.02,3.59s-4.13,1.22-6.97,1.22c-1.99,0-3.76-.11-5.32-.33-1.56-.22-3.17-.52-4.84-.88l.03-.02Z"/></g></svg>