<?xml version="1.0" encoding="UTF-8"?><svg id="Capa_2" xmlns="http://www.w3.org/2000/svg" viewBox="0 0 72.18 80.29"><defs><style>.cls-1{fill:#8fdca5;stroke-width:0px;}</style></defs><g id="Capa_1-2"><path class="cls-1" d="m72.15,39.54c-1.18-6.96-5.54-12.71-11.68-15.73l10.25-3c.66-.19,1.18-.71,1.36-1.38.19-.66.02-1.38-.44-1.89-3.63-4.02-8.46-6.42-13.59-6.99l6.12-5.83c.5-.47.72-1.17.58-1.85s-.61-1.23-1.26-1.47c-7.83-2.93-16.43-1.18-22.46,4.56-2.17,2.07-3.82,4.49-4.95,7.12-1.13-2.63-2.78-5.05-4.95-7.12C25.11.21,16.51-1.53,8.68,1.4c-.64.24-1.12.8-1.26,1.47s.08,1.37.58,1.85l6.12,5.83c-5.12.57-9.95,2.98-13.59,6.99-.46.51-.63,1.22-.44,1.89.19.66.7,1.18,1.36,1.38l10.25,3C5.56,26.83,1.21,32.58.03,39.54c-.12.68.13,1.37.64,1.83.37.33.85.51,1.33.51.19,0,.37-.03.56-.08l27.28-7.92c.34,8.36,1.02,29.01-.14,36.78-.18,1.23-1.41,4.93-2.14,6.97-.22.61-.13,1.29.25,1.83s.98.85,1.64.85h13.29c.65,0,1.26-.32,1.64-.85s.47-1.21.25-1.83c-.73-2.04-1.96-5.73-2.14-6.97-1.16-7.77-.48-28.42-.14-36.78l27.28,7.92c.18.05.37.08.56.08.48,0,.96-.18,1.33-.51.51-.46.76-1.15.64-1.83Zm-5.95-21.57l-12.81,3.75c-2.54-.3-5.07-.15-7.5.43-2.17.52-4.26,1.37-6.19,2.56,2.08-4.59,6.01-8.1,11.01-9.57,1.05-.31,2.11-.5,3.18-.61.6-.06,1.2-.1,1.8-.1,3.78,0,7.46,1.23,10.51,3.55Zm-22.41-9.1c3.33-3.18,7.64-4.85,12.05-4.85,1,0,2.01.09,3.01.26l-6.79,6.47c-.83.14-1.65.32-2.47.56-4.5,1.32-8.31,3.97-11.03,7.51.58-3.73,2.37-7.22,5.23-9.95ZM13.32,4.26c5.42-.94,10.97.7,15.06,4.59,2.86,2.73,4.65,6.22,5.23,9.95-2.72-3.54-6.53-6.2-11.03-7.51-.82-.24-1.65-.42-2.47-.56l-6.79-6.47Zm-7.35,13.7c3.53-2.68,7.9-3.9,12.3-3.45,1.06.11,2.13.31,3.19.62,5,1.46,8.93,4.98,11.01,9.57-4.08-2.5-8.88-3.56-13.69-2.99l-12.81-3.75Zm23.76,11.77l-24.9,7.23c1.91-5.16,6.12-9.13,11.54-10.71.7-.2,1.4-.35,2.1-.47.95-.15,1.89-.24,2.83-.24,3.37,0,6.66.98,9.49,2.83.36.23.71.47,1.05.73l-1.01.29-1.11.32Zm8.78,41.51c.17,1.15.83,3.3,1.41,5.05h-7.69c.58-1.75,1.24-3.9,1.41-5.05,1.28-8.54.47-30.81.14-38.52l1.87-.54.42-.12.42.12,1.87.54c-.33,7.72-1.14,29.99.14,38.52Zm3.92-41.51l-1.11-.32-1.01-.29c.34-.26.7-.49,1.06-.73,3.63-2.37,8-3.32,12.33-2.61.7.11,1.39.27,2.08.47,5.42,1.58,9.63,5.55,11.54,10.71l-24.9-7.23Z"/></g></svg>