<?xml version="1.0" encoding="UTF-8"?><svg id="Capa_2" xmlns="http://www.w3.org/2000/svg" viewBox="0 0 79.03 80"><defs><style>.cls-1{fill:#8fdca5;stroke-width:0px;}</style></defs><g id="Capa_1-2"><path class="cls-1" d="m30.81,80h0c-2.4,0-4.03-2.41-3.18-4.65,1.83-4.81,6.38-7.72,10.5-10.37,5.09-3.26,9.48-6.07,9.48-11.65s-4.39-8.39-9.48-11.65c-5.31-3.4-11.32-7.26-11.32-15.02s6.02-11.62,11.32-15.02c5.09-3.26,9.48-6.08,9.48-11.65h0c2.4,0,4.03,2.41,3.18,4.65-1.83,4.81-6.38,7.72-10.5,10.37-5.09,3.26-9.48,6.08-9.48,11.65s4.39,8.39,9.48,11.65c5.31,3.4,11.32,7.26,11.32,15.02s-6.02,11.62-11.32,15.02c-5.09,3.26-9.48,6.07-9.48,11.65Z"/><path class="cls-1" d="m64.43,58.29c-3.25,0-6.44-1.04-9.16-3.03-.73-.53-1.01-1.49-.68-2.33,1.76-4.55,5.44-7.95,10.1-9.31,4.66-1.36,9.59-.49,13.52,2.4.73.53,1.01,1.49.68,2.33-1.76,4.55-5.44,7.95-10.1,9.31-1.44.42-2.91.63-4.36.63Zm-5.43-5.39c2.65,1.44,5.73,1.78,8.67.92,2.94-.86,5.35-2.81,6.81-5.45-2.65-1.44-5.73-1.78-8.67-.92-2.94.86-5.35,2.81-6.81,5.45Z"/><path class="cls-1" d="m50.72,57.64l-.49-3.97c1.84-.23,3.6-.82,5.23-1.75l2,3.47c-2.09,1.2-4.36,1.96-6.73,2.25Z"/><path class="cls-1" d="m44.87,34.52c-3.25,0-6.44-1.03-9.16-3.03-.73-.53-1.01-1.49-.68-2.33,1.76-4.55,5.44-7.95,10.1-9.31h0c4.66-1.36,9.59-.49,13.52,2.4.73.54,1.01,1.49.68,2.33-1.76,4.55-5.44,7.95-10.1,9.31-1.44.42-2.91.63-4.36.63Zm-5.43-5.39c2.65,1.44,5.73,1.78,8.67.92,2.94-.86,5.35-2.8,6.81-5.45-2.65-1.44-5.73-1.78-8.67-.92-2.94.86-5.35,2.81-6.81,5.45Z"/><path class="cls-1" d="m31.16,33.87l-.49-3.97c1.84-.23,3.6-.82,5.23-1.75l2,3.47c-2.09,1.2-4.36,1.96-6.73,2.25Z"/><path class="cls-1" d="m32.26,61.11c-1.46,0-2.92-.21-4.36-.63-4.66-1.36-8.34-4.76-10.1-9.31-.33-.84-.05-1.8.68-2.33,3.93-2.89,8.86-3.76,13.52-2.4h0c4.66,1.36,8.34,4.76,10.1,9.31.32.84.05,1.8-.68,2.33-2.72,2-5.91,3.03-9.16,3.03Zm-10.05-9.92c1.46,2.64,3.87,4.59,6.81,5.45,2.94.86,6.02.52,8.67-.92-1.46-2.64-3.87-4.59-6.81-5.45-2.94-.86-6.02-.52-8.67.92Z"/><path class="cls-1" d="m47.23,60.78c-2.2-.27-5.78-1.31-7.99-2.58l2-3.47c1.69.97,4.71,1.86,6.48,2.07l-.49,3.97Z"/><path class="cls-1" d="m14.6,30.11c-1.46,0-2.92-.21-4.36-.63C5.57,28.12,1.89,24.72.13,20.17c-.33-.84-.05-1.8.68-2.33,3.93-2.89,8.86-3.76,13.52-2.4,4.66,1.36,8.34,4.76,10.1,9.31.32.84.04,1.8-.68,2.33-2.72,2-5.91,3.03-9.16,3.03Zm-10.05-9.91c1.46,2.64,3.87,4.59,6.81,5.45,2.94.86,6.02.52,8.67-.92-1.46-2.64-3.87-4.59-6.81-5.45-2.94-.86-6.02-.52-8.67.92Z"/><path class="cls-1" d="m28.31,29.46c-2.38-.29-4.64-1.05-6.73-2.25l2-3.47c1.62.94,3.38,1.52,5.23,1.75l-.49,3.97Z"/></g></svg>